<svg xmlns="http://www.w3.org/2000/svg" width="48" height="30" viewBox="0 0 48 34">
    <defs>
        <filter id="prefix__a" width="140%" height="172.7%" x="-20%" y="-36.4%" filterUnits="objectBoundingBox">
            <feOffset in="SourceAlpha" result="shadowOffsetOuter1"/>
            <feGaussianBlur in="shadowOffsetOuter1" result="shadowBlurOuter1" stdDeviation="2"/>
            <feColorMatrix in="shadowBlurOuter1" result="shadowMatrixOuter1" values="0 0 0 0 0 0 0 0 0 0.964705882 0 0 0 0 0.823529412 0 0 0 0.5 0"/>
            <feMerge>
                <feMergeNode in="shadowMatrixOuter1"/>
                <feMergeNode in="SourceGraphic"/>
            </feMerge>
        </filter>
    </defs>
    <g fill="none" fill-rule="evenodd" filter="url(#prefix__a)" transform="translate(4 6)">
        <path fill="#00F6D2" d="M35.087 0C37.787 0 40 2.609 40 5.791V16c0 3.186-2.212 5.79-4.913 5.79H4.912C2.214 21.79 0 19.185 0 15.998V5.79C0 2.61 2.212 0 4.913 0h30.174zm-.438 2.377H5.793c-2.39 0-3.486.942-3.486 3.43v10.408c0 2.491 1.097 3.198 3.486 3.198h28.856c2.39 0 3.044-.707 3.044-3.198V5.807c0-2.488-.655-3.43-3.044-3.43z"/>
        <path fill="#00F6D2" d="M6.044 5.368l1.027 1.228L5.292 8.06l-.729-1.465c-.108-.21-.276-.62-.512-1.228-.258.669-.43 1.076-.516 1.228l-.74 1.465L.967 6.596l1.106-1.228c.311-.338.613-.628.91-.865-.401-.044-.8-.11-1.196-.194L.256 4.036l.71-2.29 1.373.685c.145.072.505.297 1.077.672-.123-.609-.201-1.06-.237-1.356L2.984.107h2.18l-.176 1.639c-.038.399-.123.85-.248 1.356.25-.138.417-.23.496-.28.275-.17.488-.286.631-.36l1.374-.716.68 2.29-1.519.348c-.278.058-.69.096-1.238.119.372.319.662.605.88.865z" transform="translate(5.6 7.071)"/>
        <path fill="#00F6D2" d="M6.396 5.368l1.05 1.228L5.63 8.06l-.744-1.464c-.11-.21-.282-.62-.522-1.228-.265.669-.44 1.076-.527 1.228L3.08 8.06 1.214 6.596l1.129-1.228c.289-.313.6-.602.93-.865-.41-.044-.818-.11-1.222-.194L.487 4.036l.726-2.29 1.403.685c.146.072.516.297 1.099.672-.128-.609-.208-1.06-.243-1.356l-.2-1.638H5.5l-.181 1.637c-.052.458-.136.911-.251 1.356.254-.138.424-.23.505-.28.28-.17.498-.286.645-.36l1.403-.716.697 2.29-1.553.348c-.284.058-.704.096-1.264.119.376.319.674.605.895.865z" transform="translate(15.2 7.071)"/>
        <path fill="#00F6D2" d="M6.874 8.212c0 .51-.4.928-.887.928H1.024c-.494-.005-.89-.42-.887-.928V5.083c0-.51.4-.927.887-.927h.12V2.952C1.143 1.589 2.202.48 3.503.48c1.302 0 2.363 1.108 2.363 2.472v1.204h.119c.487 0 .887.418.887.927v3.13h.001zm-3.37-6.495c-.65 0-1.178.554-1.178 1.235v1.205h2.359V2.952c0-.681-.531-1.235-1.181-1.235z" transform="translate(26.4 6.286)"/>
    </g>
</svg>
