<svg xmlns="http://www.w3.org/2000/svg" width="13" height="8" viewBox="0 0 13 8">
    <g fill="none" fill-rule="evenodd">
        <g fill="#BDBDBD">
            <g>
                <g>
                    <path d="M2.363 12.281c-.388.397-1.014.387-1.384-.009l-.104-.11C.5 11.76.513 11.107.892 10.72l4.174-4.27-4.34-4.156C.325 1.91.316 1.275.699.884L.864.715c.386-.395 1.01-.4 1.4-.005L7.3 5.807c.387.392.387 1.031-.002 1.428l-4.934 5.046z" transform="translate(-342.000000, -671.000000) translate(0.000000, 646.000000) translate(20.000000, 20.000000) translate(328.500000, 9.000000) scale(1, -1) rotate(90.000000) translate(-328.500000, -9.000000) translate(324.500000, 2.500000)"/>
                </g>
            </g>
        </g>
    </g>
</svg>
