<svg width="20" height="20" xmlns="http://www.w3.org/2000/svg">
    <g fill="currentColor" fill-rule="nonzero" stroke="currentColor" stroke-width=".6">
        <path d="M14.985 3.154h-2.799A2.437 2.437 0 0 0 9.77 1a2.437 2.437 0 0 0-2.416 2.154h-2.8A2.056 2.056 0 0 0 2.5 5.208v.105c0 .866.539 1.607 1.298 1.908v9.704c0 1.132.921 2.054 2.054 2.054h7.835a2.056 2.056 0 0 0 2.054-2.054V7.222a2.056 2.056 0 0 0 1.298-1.909v-.105a2.056 2.056 0 0 0-2.054-2.054zm-5.216-1.18c.71 0 1.302.509 1.433 1.18H8.337a1.462 1.462 0 0 1 1.432-1.18zm4.997 14.95c0 .596-.484 1.08-1.08 1.08H5.853c-.595 0-1.08-.484-1.08-1.08V7.368h9.994v9.558zm1.299-11.61c0 .595-.485 1.08-1.08 1.08H4.554c-.595 0-1.08-.485-1.08-1.08v-.106c0-.595.485-1.08 1.08-1.08h10.43c.596 0 1.08.485 1.08 1.08v.105z"/>
        <path d="M7.158 16.759a.487.487 0 0 0 .487-.487v-5.484a.487.487 0 0 0-.974 0v5.484c0 .269.218.487.487.487zM9.77 16.759a.487.487 0 0 0 .486-.487v-5.484a.487.487 0 0 0-.974 0v5.484c0 .269.218.487.487.487zM12.38 16.759a.487.487 0 0 0 .488-.487v-5.484a.487.487 0 0 0-.974 0v5.484c0 .269.218.487.487.487z"/>
    </g>
</svg>
