<svg width="16" height="16" xmlns="http://www.w3.org/2000/svg">
    <g fill="#032E49" stroke="#032E49" stroke-width=".5" fill-rule="evenodd" stroke-linecap="round" stroke-linejoin="round">
        <path d="M11.09 11a.702.702 0 0 0 .699-.699V3.128s1.986 2.01 2.331 2.117c.346.106.943-.365.875-.912C14.926 3.787 11.789 1 11.09 1c-.698 0-3.899 3.04-4.058 3.422-.16.382.306.9.8.823.493-.078 2.56-2.117 2.56-2.117V10.3c0 .386.31.699.698.699h0zM5.09 5c.386 0 .699.318.699.699v7.173s1.986-2.01 2.331-2.117c.346-.106.943.365.875.912C8.926 12.213 5.789 15 5.09 15c-.698 0-3.899-3.04-4.058-3.422-.16-.382.306-.9.8-.823.493.078 2.56 2.117 2.56 2.117V5.7c0-.386.31-.699.698-.699h0z"/>
    </g>
</svg>
