<svg xmlns="http://www.w3.org/2000/svg" width="16" height="16" viewBox="0 0 16 16">
    <g fill="#032E49" stroke="#032E49" stroke-width=".6" transform="translate(1.469 1.5)">
        <path d="M13.363 4.466V2.409c0-1.32-.919-2.356-2.088-2.356H2.088C.918.053 0 1.089 0 2.409v8.2c0 1.32.919 2.357 2.088 2.357h9.187c1.169 0 2.088-1.037 2.088-2.357V8.647c.393-.293.668-.795.668-1.337V5.802c0-.543-.275-1.043-.668-1.336zm-.167 2.844c0 .377-.25.66-.585.66h-4.26c-.333 0-.584-.283-.584-.66V5.802c0-.377.25-.66.585-.66h4.259c.334 0 .585.283.585.66V7.31zm-1.921 4.713H2.088c-.668 0-1.253-.66-1.253-1.414v-8.2c0-.754.585-1.414 1.253-1.414h9.187c.668 0 1.253.66 1.253 1.414V4.2H8.352c-.752 0-1.42.755-1.42 1.603V7.31c0 .849.668 1.603 1.42 1.603h4.176v1.696c0 .754-.585 1.414-1.253 1.414z"/>
        <circle cx="9.089" cy="6.595" r="1"/>
    </g>
</svg>
