<svg xmlns="http://www.w3.org/2000/svg" width="159" height="139" viewBox="0 0 159 139">
    <defs>
        <linearGradient id="prefix__a" x1=".027%" x2="54.787%" y1="50.232%" y2="50.232%">
            <stop offset="0%" stop-color="#FFF" stop-opacity="0"/>
            <stop offset="100%" stop-color="#FFF"/>
        </linearGradient>
        <linearGradient id="prefix__b" x1="99.383%" x2="35.802%" y1="49.833%" y2="49.833%">
            <stop offset="0%" stop-color="#FD76FD" stop-opacity="0"/>
            <stop offset="100%" stop-color="#FF51FF"/>
        </linearGradient>
        <linearGradient id="prefix__c" x1="100.434%" x2="48.938%" y1="50.114%" y2="50.114%">
            <stop offset="0%" stop-color="#9D6EFF" stop-opacity="0"/>
            <stop offset="100%" stop-color="#A18CFF"/>
        </linearGradient>
        <linearGradient id="prefix__d" x1="99.909%" x2="41.056%" y1="50.24%" y2="50.24%">
            <stop offset="0%" stop-color="#AE60D6" stop-opacity="0"/>
            <stop offset="100%" stop-color="#AB38E6"/>
        </linearGradient>
    </defs>
    <g fill="none">
        <path fill="#0B76FF" d="M64.599 92.169L97.555 92.169 64.608 34.776 64.608 34.776 64.608 0 129.19 110.637 64.595 110.637z" transform="translate(14.824 .242)"/>
        <path fill="#24C1FF" d="M64.595 92.169L31.634 92.169 64.582 34.776 64.582 34.776 64.582 0 0 110.637 64.595 110.637z" transform="translate(14.824 .242)"/>
        <path fill="#25C1FF" stroke="#25C1FF" d="M39.252 138.175h-5.666v-13.61H39.1c.998 0 1.78.33 2.346.989.566.66.849 1.486.849 2.48 0 .816-.188 1.506-.563 2.07-.376.565-.838.915-1.388 1.051.606.11 1.119.487 1.539 1.133.42.646.63 1.384.63 2.214 0 1.088-.288 1.973-.866 2.653-.577.68-1.375 1.02-2.395 1.02zm-.852-8.26c.355 0 .633-.13.835-.391.202-.262.302-.599.302-1.013 0-.424-.1-.767-.302-1.028-.202-.261-.48-.392-.835-.392h-2.264v2.824H38.4zm.235 5.897c.417 0 .742-.136.976-.409.234-.273.352-.654.352-1.144 0-.434-.118-.798-.352-1.093-.234-.295-.56-.443-.976-.443h-2.499v3.09h2.5zm28.58 2.363h-8.502v-13.61h8.502v2.526H60.89v2.894h6.196v2.525H60.89v3.138h6.326v2.527zm28.695 0h-2.714l-1-2.612h-6.244l-1 2.612h-2.714l5.346-13.61h2.98l5.346 13.61zm-4.812-5.415l-2.024-5.363-2.024 5.363h4.048zm34.048 5.415h-2.388v-10.1l-4.183 10.1h-1.02l-4.163-10.1v10.1h-2.388v-13.61h3.367l3.694 8.958 3.714-8.959h3.367v13.611z"/>
        <path fill="#39FFF2" d="M79.419 49.515L79.419 86.617 59.234 86.655z"/>
        <path fill="#00E2C2" d="M79.419 49.515L79.419 86.617 99.605 86.655z"/>
        <path fill="url(#prefix__a)" d="M0.293 34.852L79.419 71.422 79.419 75.249 0.293 57.929z"/>
        <path fill="url(#prefix__b)" d="M158.707 24.233L79.419 71.422 79.419 72.698 158.707 39.465z"/>
        <path fill="url(#prefix__c)" d="M158.707 69.934L79.419 75.249 79.419 73.973 158.707 54.702z"/>
        <path fill="url(#prefix__d)" d="M158.707 39.465L79.419 72.698 79.419 73.973 158.707 54.702z"/>
    </g>
</svg>
