<svg width="50" height="50" viewBox="0 0 50 50" fill="none" xmlns="http://www.w3.org/2000/svg">
    <g clip-path="url(#clip0_6_498)">
        <mask id="mask0_6_498" style="mask-type:alpha" maskUnits="userSpaceOnUse" x="0" y="0" width="50" height="50">
            <path d="M25 50C38.8071 50 50 38.8071 50 25C50 11.1929 38.8071 0 25 0C11.1929 0 0 11.1929 0 25C0 38.8071 11.1929 50 25 50Z" fill="red"/>
        </mask>
        <g mask="url(#mask0_6_498)">
            <path d="M25 50C38.8071 50 50 38.8071 50 25C50 11.1929 38.8071 0 25 0C11.1929 0 0 11.1929 0 25C0 38.8071 11.1929 50 25 50Z" fill=""/>
        </g>
        <path d="M38.2666 19.1504C38.2666 23.2784 34.9202 26.6248 30.7922 26.6248C26.6642 26.6248 23.3178 23.2784 23.3178 19.1504C23.3178 15.0223 26.6642 11.6759 30.7922 11.6759C34.9202 11.6759 38.2666 15.0223 38.2666 19.1504Z" fill="url(#paint0_radial_6_498)" stroke="#92ABBA" stroke-width="1.49489"/>
        <path fill-rule="evenodd" clip-rule="evenodd" d="M30.7929 15.1954L34.3245 21.318H30.7922V20.2952L32.5947 20.2959L30.7929 17.12V15.1954Z" fill="white"/>
        <path fill-rule="evenodd" clip-rule="evenodd" d="M30.7916 15.1954L27.26 21.318H30.7922V20.2952L28.9897 20.2959L30.7916 17.12V15.1954Z" fill="white"/>
        <path fill-rule="evenodd" clip-rule="evenodd" d="M30.7922 17.9084V19.9226L29.6748 19.9248L30.7922 17.9084Z" fill="white"/>
        <path fill-rule="evenodd" clip-rule="evenodd" d="M30.7921 17.9084V19.9226L31.9094 19.9248L30.7921 17.9084Z" fill="white"/>
        <path d="M29.0483 29.1993C29.0483 33.786 25.33 37.5043 20.7433 37.5043C16.1567 37.5043 12.4384 33.786 12.4384 29.1993C12.4384 24.6126 16.1567 20.8944 20.7433 20.8944C25.33 20.8944 29.0483 24.6126 29.0483 29.1993Z" fill="url(#paint1_radial_6_498)" stroke="#92ABBA" stroke-width="1.66099"/>
        <path fill-rule="evenodd" clip-rule="evenodd" d="M20.5864 24.089L25.6733 32.9078H20.5854V31.4347L23.1817 31.4356L20.5864 26.8612V24.089Z" fill="white"/>
        <path fill-rule="evenodd" clip-rule="evenodd" d="M20.5845 24.089L15.4976 32.9078H20.5854V31.4347L17.9892 31.4356L20.5845 26.8612V24.089Z" fill="white"/>
        <path fill-rule="evenodd" clip-rule="evenodd" d="M20.585 27.9968V30.898L18.9756 30.9012L20.585 27.9968Z" fill="white"/>
        <path fill-rule="evenodd" clip-rule="evenodd" d="M20.5849 27.9968V30.898L22.1943 30.9012L20.5849 27.9968Z" fill="white"/>
        <path fill-rule="evenodd" clip-rule="evenodd" d="M20.9243 29.163L15.4973 26.8025V29.516L20.9243 29.4059V29.163Z" fill="white"/>
        <path fill-rule="evenodd" clip-rule="evenodd" d="M20.9243 29.163L26.3513 26.8025V29.516L20.9243 29.4059V29.163Z" fill="white"/>
        <path d="M22.6962 10.0303C22.5504 9.91148 22.3744 9.78211 22.1803 9.63797C21.9859 9.49498 21.7719 9.35841 21.5511 9.2134C21.3307 9.07321 21.1026 8.9453 20.8837 8.81914C20.6648 8.70012 20.4544 8.59642 20.271 8.50442C20.0876 8.41241 19.9318 8.34889 19.8217 8.2994C19.7107 8.25152 19.6478 8.2241 19.6478 8.2241L19.7831 9.37442C19.7831 9.37442 19.7636 9.3767 19.7263 9.38215C19.689 9.3876 19.6333 9.39255 19.5617 9.40641C19.4181 9.43345 19.2073 9.46624 18.942 9.52032C18.4115 9.63146 17.6589 9.82454 16.7975 10.164C16.7437 10.1848 16.6892 10.2061 16.6343 10.2267C16.5805 10.2505 16.5256 10.2741 16.4707 10.2976C16.3607 10.346 16.2493 10.3952 16.1348 10.4457C16.0202 10.4931 15.9095 10.555 15.7934 10.6105C15.6787 10.6681 15.5613 10.7246 15.4446 10.7866C15.3299 10.8513 15.2133 10.9162 15.0946 10.9826C15.0362 11.0157 14.9771 11.0492 14.9169 11.0825C14.8586 11.1185 14.8007 11.1553 14.7416 11.1918C14.6247 11.265 14.5064 11.3392 14.3868 11.4144C14.2705 11.4943 14.1544 11.576 14.0367 11.6569C13.1029 12.3195 12.1952 13.1469 11.4286 14.0893C10.6611 15.0304 10.044 16.084 9.5978 17.1211C9.15026 18.1592 8.87664 19.1807 8.72432 20.0654C8.69056 20.2874 8.65617 20.4998 8.62827 20.7026C8.60979 20.906 8.59204 21.0989 8.57503 21.2811C8.55409 21.462 8.55409 21.6325 8.54812 21.79C8.5433 21.9477 8.53916 22.0919 8.53455 22.2222C8.54035 22.426 8.5451 22.5956 8.54873 22.7266C8.55356 22.9006 8.69804 23.038 8.87211 23.0341C9.13016 23.0284 9.33907 22.8227 9.34896 22.5647C9.35245 22.474 9.35643 22.3707 9.3609 22.256C9.40864 21.7701 9.46371 21.0733 9.66878 20.2653C9.86375 19.4573 10.1768 18.5368 10.6469 17.6205C11.1144 16.7049 11.7336 15.7942 12.4739 15.0001C13.2137 14.2053 14.0662 13.5278 14.9261 12.9996C15.0337 12.9348 15.1414 12.8699 15.247 12.8064C15.3559 12.7478 15.4634 12.69 15.5703 12.6328C15.6237 12.6041 15.6765 12.576 15.7288 12.5471C15.7823 12.5215 15.8364 12.4954 15.8892 12.4702C15.9955 12.4194 16.1011 12.369 16.2054 12.3196C16.3099 12.272 16.4157 12.2307 16.5189 12.187C16.6223 12.1452 16.7209 12.0977 16.8242 12.063C16.9255 12.0267 17.0256 11.9903 17.1232 11.9545C17.1723 11.9369 17.2201 11.9192 17.2685 11.9021C17.3171 11.8869 17.3655 11.8728 17.413 11.8573C18.1758 11.6149 18.8305 11.4921 19.2895 11.4271C19.5191 11.3954 19.7011 11.3804 19.8243 11.3644C19.8859 11.3564 19.9336 11.3559 19.9657 11.3531C19.9976 11.3514 20.0138 11.3503 20.0138 11.3503L20.1491 12.5006L23.1672 10.4273C23.1672 10.4273 22.9854 10.2676 22.6934 10.0262L22.6962 10.0303Z" fill="url(#paint2_linear_6_498)"/>
        <path d="M28.4309 40.6269C28.5952 40.7184 28.7911 40.8149 29.0075 40.9228C29.224 41.0295 29.4586 41.1265 29.7014 41.2306C29.943 41.3299 30.1899 41.4159 30.4275 41.5018C30.6639 41.5806 30.8893 41.6458 31.086 41.7042C31.2826 41.7627 31.4471 41.7979 31.5642 41.8274C31.6819 41.855 31.7486 41.871 31.7486 41.871L31.4138 40.7622C31.4138 40.7622 31.4326 40.7566 31.4684 40.7446C31.5042 40.7327 31.5581 40.7181 31.6262 40.6919C31.7629 40.6401 31.9647 40.5709 32.2164 40.4712C32.7192 40.2688 33.4263 39.9468 34.2149 39.4617C34.2642 39.4318 34.3141 39.4013 34.3646 39.3714C34.4133 39.3385 34.4633 39.3057 34.5132 39.2728C34.613 39.206 34.714 39.138 34.818 39.0682C34.9225 39.0014 35.0206 38.9211 35.1252 38.8461C35.228 38.7693 35.3337 38.6931 35.4377 38.6117C35.5393 38.5278 35.6428 38.4435 35.7479 38.3573C35.7996 38.3145 35.8519 38.2712 35.9054 38.2278C35.9565 38.1821 36.0071 38.1358 36.0588 38.0895C36.1611 37.9969 36.2645 37.9031 36.3691 37.8082C36.4697 37.7091 36.5696 37.6083 36.6713 37.5081C37.4745 36.6921 38.2232 35.7184 38.8128 34.6562C39.4036 33.5953 39.8265 32.4498 40.084 31.3505C40.3427 30.2501 40.4331 29.1964 40.428 28.2987C40.4224 28.0742 40.419 27.8591 40.4109 27.6546C40.3935 27.4511 40.3772 27.2581 40.362 27.0757C40.3509 26.8939 40.321 26.726 40.2993 26.5699C40.2764 26.4138 40.2552 26.2712 40.2369 26.1421C40.1955 25.9424 40.1611 25.7763 40.1346 25.648C40.0993 25.4775 39.933 25.3676 39.7623 25.4019C39.5093 25.4528 39.3396 25.6919 39.3751 25.9475C39.3876 26.0375 39.4017 26.1399 39.4174 26.2536C39.4556 26.7404 39.5235 27.4361 39.4632 28.2674C39.4128 29.0971 39.2659 30.0582 38.9637 31.0427C38.6638 32.0261 38.2138 33.0312 37.6241 33.9428C37.0351 34.8549 36.3145 35.6713 35.5604 36.3419C35.4658 36.4247 35.3712 36.5074 35.2783 36.5884C35.1814 36.6653 35.0856 36.7409 34.9905 36.816C34.9429 36.8536 34.8959 36.8906 34.8494 36.9281C34.8013 36.9628 34.7525 36.998 34.705 37.032C34.6092 37.1007 34.5141 37.1687 34.4201 37.2356C34.3255 37.3008 34.2286 37.3601 34.1347 37.4211C34.0401 37.4804 33.9515 37.5445 33.8558 37.5967C33.7624 37.6502 33.6703 37.7036 33.5804 37.756C33.5352 37.7818 33.4912 37.8077 33.4466 37.833C33.4014 37.8565 33.3562 37.8788 33.3122 37.9024C32.6037 38.2747 31.9806 38.5103 31.5401 38.6548C31.3196 38.7262 31.143 38.7729 31.0246 38.8102C30.9653 38.8289 30.9184 38.8377 30.8873 38.8462C30.8563 38.8534 30.8404 38.8574 30.8404 38.8574L30.5056 37.7485L27.8976 40.3186C27.8976 40.3186 28.1046 40.444 28.4344 40.6305L28.4309 40.6269Z" fill="url(#paint3_linear_6_498)"/>
    </g>
    <defs>
        <radialGradient id="paint0_radial_6_498" cx="0" cy="0" r="1" gradientUnits="userSpaceOnUse" gradientTransform="translate(30.7922 19.1504) scale(5.97956)">
            <stop stop-color="#5E7BF2"/>
            <stop offset="1" stop-color="#103051"/>
        </radialGradient>
        <radialGradient id="paint1_radial_6_498" cx="0" cy="0" r="1" gradientUnits="userSpaceOnUse" gradientTransform="translate(20.7433 29.1993) scale(9.13543)">
            <stop stop-color="#008471"/>
            <stop offset="1" stop-color="#103051"/>
        </radialGradient>
        <linearGradient id="paint2_linear_6_498" x1="7.66078" y1="22.4561" x2="18.2415" y2="11.3094" gradientUnits="userSpaceOnUse">
            <stop stop-color="#92ABBA"/>
            <stop offset="1" stop-color="#92ABBA"/>
        </linearGradient>
        <linearGradient id="paint3_linear_6_498" x1="41.0562" y1="25.7587" x2="32.5925" y2="38.587" gradientUnits="userSpaceOnUse">
            <stop stop-color="#92ABBA"/>
            <stop offset="1" stop-color="#92ABBA"/>
        </linearGradient>
        <clipPath id="clip0_6_498">
            <rect width="50" height="50" fill="red"/>
        </clipPath>
    </defs>
</svg>
