<?xml version="1.0" encoding="utf-8"?>
<!-- Svg Vector Icons : http://www.onlinewebfonts.com/icon -->
<!DOCTYPE svg PUBLIC "-//W3C//DTD SVG 1.1//EN" "http://www.w3.org/Graphics/SVG/1.1/DTD/svg11.dtd">
<svg version="1.1" xmlns="http://www.w3.org/2000/svg" xmlns:xlink="http://www.w3.org/1999/xlink" x="0px" y="0px" viewBox="0 0 1000 1000" enable-background="new 0 0 1000 1000" xml:space="preserve">
<metadata> Svg Vector Icons : http://www.onlinewebfonts.com/icon </metadata>
    <g><path d="M500,8.7C229.9,8.7,10,229.1,10,499.9c0,271,219.9,491.4,490,491.4s490-220.4,490-491.4C990,229.1,770.1,8.7,500,8.7L500,8.7z M563.6,817.3C548.5,833,529.2,841,506,841c-24.3,0-44.6-8.3-60.8-24.6c-16.2-16.3-24.3-35.9-24.3-58c0-21.4,7.6-39.5,22.5-53.8c19.7-18.8,40.2-28.3,60.8-28.3c22.5,0,41.8,8.1,57.8,24.1c16,16,24.1,35.7,24.1,58.5C586.1,782.2,578.6,801.9,563.6,817.3L563.6,817.3z M585.9,361.4l-28.6,149.9c-7.6,45.3-16,82.3-25,110l-1.1,3.3c0,0-9.1,0.5-12.7,0.5l-46-0.2l-39-176.5c-13.7-68.9-22.5-117.1-26.9-147.3c-2.3-19.5-3.3-33.9-3.3-43.4c0-2.8,0.9-8.8,2.8-17.8c1.8-19.3,9.1-34.4,22.3-44.3c12.7-9.5,30.2-15.1,52.7-16.7c12-1.9,20-2.8,23.7-2.8c25.7,0,47.5,6.7,65,19.9c18.1,13.5,27.2,32.7,27.2,57.1C596.8,274.6,593.3,309.9,585.9,361.4L585.9,361.4z" fill="#D82927"/></g>
</svg>
