<svg width="14" height="14" viewBox="0 0 14 14" fill="none" xmlns="http://www.w3.org/2000/svg">
	<path d="M6 2H4C2.89543 2 2 2.89543 2 4V10C2 11.1046 2.89543 12 4 12H10C11.1046 12 12 11.1046 12 10V8H10V10H4V4H6V2Z" fill="#05e2c2"/>
	<path d="M9.20711 1H12.5C12.7761 1 13 1.22386 13 1.5V4.79289C13 5.23835 12.4614 5.46143 12.1464 5.14645L11.182 4.18197L8.82493 6.53902C8.43441 6.92954 7.80124 6.92954 7.41072 6.53902C7.0202 6.14849 7.0202 5.51533 7.41072 5.1248L9.76776 2.76776L8.85355 1.85355C8.53857 1.53857 8.76165 1 9.20711 1Z" fill="#05e2c2"/>
</svg>
