<svg width="24" height="24" xmlns="http://www.w3.org/2000/svg">
    <g fill="#FFF" fill-rule="evenodd">
        <path d="M7.715 17.41a.84.84 0 0 1-.595.252.84.84 0 0 1-.595-.251.874.874 0 0 1 0-1.214.84.84 0 0 1 .595-.25.84.84 0 0 1 .595.25.874.874 0 0 1 0 1.214z"/>
        <path d="M10.216 20.75H4.024a.782.782 0 0 1-.774-.79v-6.313c0-.436.347-.79.774-.79h6.192c.428 0 .774.354.774.79v6.314c0 .436-.346.789-.774.789zm-.774-6.314H4.798v4.736h4.644v-4.736z" fill-rule="nonzero"/>
        <path d="M17.474 17.41a.838.838 0 0 1-.594.252.84.84 0 0 1-.595-.251.874.874 0 0 1 0-1.214.84.84 0 0 1 .595-.25c.221 0 .438.09.594.25a.872.872 0 0 1 0 1.214z"/>
        <path d="M19.976 20.75h-6.192a.782.782 0 0 1-.774-.79v-6.313c0-.436.346-.79.774-.79h6.192c.427 0 .774.354.774.79v6.314c0 .436-.347.789-.774.789zm-.774-6.314h-4.644v4.736h4.644v-4.736z" fill-rule="nonzero"/>
        <path d="M7.715 7.803a.84.84 0 0 1-.595.25.84.84 0 0 1-.595-.25.874.874 0 0 1 0-1.214.84.84 0 0 1 .595-.25.84.84 0 0 1 .595.25.874.874 0 0 1 0 1.214z"/>
        <path d="M10.216 11.142H4.024a.782.782 0 0 1-.774-.789V4.039c0-.436.347-.789.774-.789h6.192c.428 0 .774.353.774.79v6.313c0 .436-.346.79-.774.79zm-.774-6.314H4.798v4.736h4.644V4.828z" fill-rule="nonzero"/>
        <path d="M17.51 8.054h-.588a.87.87 0 0 1-.884-.858.87.87 0 0 1 .884-.858h.589a.87.87 0 0 1 .883.858.87.87 0 0 1-.883.858zM19.93 6.338c-.453 0-.82-.345-.82-.772v-.772h-1.915c-.453 0-.82-.346-.82-.772 0-.426.367-.772.82-.772h2.735c.453 0 .82.346.82.772v1.544c0 .427-.367.772-.82.772zM13.851 8.054a.833.833 0 0 1-.841-.824V6.132c0-.454.376-.823.841-.823.465 0 .841.369.841.823V7.23a.833.833 0 0 1-.841.824zM17.3 11.142h-1.514c-.418 0-.757-.384-.757-.858 0-.473.339-.858.757-.858H17.3c.419 0 .758.385.758.858 0 .474-.34.858-.758.858z"/>
    </g>
</svg>
