<svg width="24" height="24" xmlns="http://www.w3.org/2000/svg">
    <path d="M23.143 11.239h-1.08V6.32c0-1.179-.97-2.138-2.16-2.138H18.44l-1.497-2.665a1.298 1.298 0 0 0-1.763-.498L9.435 4.182H3.017c-1.19 0-2.16.959-2.16 2.138v14.684c0 1.18.97 2.139 2.16 2.139h16.886c1.19 0 2.16-.96 2.16-2.139v-4.312h1.08v-5.453zm-3.24-6.202c.665 0 1.208.5 1.281 1.14h-1.623l-.64-1.14h.982zM15.6 1.767a.443.443 0 0 1 .587.165l2.385 4.245H7.587l8.013-4.41zM21.2 21.003c0 .708-.582 1.284-1.296 1.284H3.017a1.291 1.291 0 0 1-1.296-1.284V6.32c0-.707.582-1.283 1.296-1.283h4.864L5.81 6.177H3.287a.43.43 0 0 0-.432.428.43.43 0 0 0 .432.428H21.2v4.206h-3.16c-1.467 0-2.661 1.182-2.661 2.635v.184c0 1.452 1.194 2.634 2.661 2.634h3.16v4.312zm1.08-5.168h-4.24a1.79 1.79 0 0 1-1.797-1.779v-.184c0-.98.806-1.779 1.797-1.779h4.24v3.742zM19.363 14a.949.949 0 0 1-.954.945.949.949 0 0 1-.954-.945c0-.521.427-.944.954-.944.527 0 .954.423.954.944z" fill="#92ABBA" fill-rule="nonzero" stroke="#92ABBA"/>
</svg>
