<?xml version="1.0" encoding="utf-8"?>
<svg viewBox="0 0 20 20" width="20px" height="20px" xmlns="http://www.w3.org/2000/svg">
  <path fill-rule="evenodd" clip-rule="evenodd" d="M 17.5 10 C 17.5 14.143 14.142 17.5 10 17.5 C 5.857 17.5 2.5 14.143 2.5 10 C 2.5 5.858 5.857 2.5 10 2.5 C 14.142 2.5 17.5 5.858 17.5 10 Z M 20 10 C 20 15.523 15.522 20 10 20 C 4.477 20 0 15.523 0 10 C 0 4.478 4.477 0 10 0 C 15.522 0 20 4.478 20 10 Z M 10 13.75 C 12.071 13.75 13.75 12.071 13.75 10 C 13.75 7.929 12.071 6.25 10 6.25 C 7.929 6.25 6.25 7.929 6.25 10 C 6.25 12.071 7.929 13.75 10 13.75 Z" style="fill: rgb(255, 255, 255);"/>
</svg>