<svg width="28" height="28" xmlns="http://www.w3.org/2000/svg">
    <path d="M14.545 1a2 2 0 0 1 1.982 1.73l.086.631c.046.338.005.667-.106.966.894.23 1.74.583 2.519 1.04a2 2 0 0 1 .6-.732l.512-.386a2 2 0 0 1 2.619.182l.762.762a2 2 0 0 1 .178 2.625l-.385.507c-.2.262-.45.461-.728.594.468.79.83 1.65 1.07 2.561a1.942 1.942 0 0 1 .904-.082l.636.089a2 2 0 0 1 1.722 1.98v1.078a2 2 0 0 1-1.73 1.982l-.63.086c-.301.041-.596.013-.867-.072a10.049 10.049 0 0 1-1.04 2.585 1.92 1.92 0 0 1 .656.559l.387.512a2 2 0 0 1-.182 2.619l-.763.762a2 2 0 0 1-2.624.178l-.507-.385a1.993 1.993 0 0 1-.535-.615 9.806 9.806 0 0 1-2.537 1.064 1.92 1.92 0 0 1 .058.822l-.089.635A2 2 0 0 1 14.533 27h-1.078a2 2 0 0 1-1.982-1.73l-.086-.631a1.993 1.993 0 0 1 .065-.843 9.773 9.773 0 0 1-2.522-1.08 1.949 1.949 0 0 1-.556.649l-.512.386a2 2 0 0 1-2.619-.182l-.762-.762a2 2 0 0 1-.178-2.625l.385-.507c.198-.26.446-.457.72-.59a10.043 10.043 0 0 1-1.026-2.577 1.96 1.96 0 0 1-.94.094l-.636-.089a2 2 0 0 1-1.722-1.98v-1.078a2 2 0 0 1 1.73-1.982l.63-.086c.343-.047.676-.004.978.11A10.03 10.03 0 0 1 5.483 8.94a1.973 1.973 0 0 1-.788-.625l-.387-.512a2 2 0 0 1 .182-2.619l.763-.762a2 2 0 0 1 2.624-.178l.507.385c.276.21.482.477.614.772a9.799 9.799 0 0 1 2.51-1.058 1.997 1.997 0 0 1-.11-.985l.089-.635A2 2 0 0 1 13.467 1h1.078zm-.505 16.29c1.737 0 3.152-1.434 3.152-3.212 0-1.778-1.415-3.213-3.152-3.213s-3.152 1.435-3.152 3.213 1.415 3.212 3.152 3.212z" fill-rule="nonzero" stroke="#92ABBA" stroke-width="2" fill="none"/>
</svg>
