<svg xmlns="http://www.w3.org/2000/svg" width="48" height="34" viewBox="0 0 48 34">
    <defs>
        <filter id="prefix__a" width="140%" height="159.3%" x="-20%" y="-29.6%" filterUnits="objectBoundingBox">
            <feOffset in="SourceAlpha" result="shadowOffsetOuter1"/>
            <feGaussianBlur in="shadowOffsetOuter1" result="shadowBlurOuter1" stdDeviation="2"/>
            <feColorMatrix in="shadowBlurOuter1" result="shadowMatrixOuter1" values="0 0 0 0 0 0 0 0 0 0.964705882 0 0 0 0 0.823529412 0 0 0 0.5 0"/>
            <feMerge>
                <feMergeNode in="shadowMatrixOuter1"/>
                <feMergeNode in="SourceGraphic"/>
            </feMerge>
        </filter>
    </defs>
    <g fill="none" fill-rule="evenodd" filter="url(#prefix__a)" transform="translate(4 4)">
        <path fill="#00F6D2" d="M39.624 7.364C34.414 2.616 27.555.001 20.309 0h-.003C13.06 0 6.201 2.616.991 7.364.5 7.811.488 8.546.96 9.01c.241.236.563.355.886.355.308 0 .616-.108.854-.325 4.75-4.33 11.002-6.713 17.608-6.713 6.605 0 12.859 2.384 17.606 6.713.493.445 1.265.432 1.74-.03.227-.22.352-.519.346-.828-.006-.31-.141-.604-.376-.816z"/>
        <path fill="#00F6D2" d="M17.846.011C9.233.011 2.781 5.444.406 7.78c-.453.439-.453 1.146 0 1.585 2.374 2.336 8.826 7.77 17.44 7.77s15.066-5.434 17.44-7.77c.453-.439.453-1.146 0-1.585C32.913 5.444 26.46.012 17.847.012zM9.902 4.08C9.035 5.475 8.578 7.071 8.58 8.697c0 1.533.398 2.995 1.12 4.277-2.91-1.327-5.2-3.1-6.649-4.401 1.482-1.331 3.846-3.158 6.851-4.494zm4.764 10.464c-2.227-1.132-3.605-3.36-3.605-5.846 0-2.84 1.812-5.334 4.516-6.232.736-.093 1.492-.146 2.269-.146.58 0 1.148.03 1.706.084 2.782.823 4.721 3.404 4.721 6.294 0 2.53-1.475 4.84-3.772 5.93-.878.132-1.766.199-2.655.2-1.067-.002-2.131-.096-3.18-.284zm10.826-1.348c.825-1.366 1.26-2.918 1.26-4.498 0-1.738-.505-3.397-1.465-4.834 3.245 1.348 5.79 3.305 7.354 4.71-1.53 1.375-4.002 3.278-7.15 4.622z" transform="translate(2.353 8.667)"/>
        <path fill="#00F6D2" d="M6.84 3.236c-1.76 0-3.189-1.252-3.189-2.794C1.89.442.461 1.694.461 3.236S1.89 6.03 3.65 6.03s3.19-1.252 3.19-2.794z" transform="translate(16.47 14.182)"/>
    </g>
</svg>
