<svg width="22" height="23" xmlns="http://www.w3.org/2000/svg" xmlns:xlink="http://www.w3.org/1999/xlink">
    <defs>
        <path d="M1.5 0h19a1.5 1.5 0 1 1 0 3h-19a1.5 1.5 0 1 1 0-3z" id="a"/>
        <path d="M1.5 0h19a1.5 1.5 0 1 1 0 3h-19a1.5 1.5 0 1 1 0-3z" id="c"/>
        <path d="M1.5 0h19a1.5 1.5 0 1 1 0 3h-19a1.5 1.5 0 0 1 0-3z" id="e"/>
    </defs>
    <g fill="none" fill-rule="evenodd">
        <g transform="translate(0 4)">
            <mask id="b" fill="#fff">
                <use xlink:href="#a"/>
            </mask>
            <path fill="#FFF" mask="url(#b)" d="M-5-5h32V8H-5z"/>
        </g>
        <g transform="translate(0 10)">
            <mask id="d" fill="#fff">
                <use xlink:href="#c"/>
            </mask>
            <path fill="#FFF" mask="url(#d)" d="M-5-5h32V8H-5z"/>
        </g>
        <g transform="translate(0 16)">
            <mask id="f" fill="#fff">
                <use xlink:href="#e"/>
            </mask>
            <path fill="#FFF" mask="url(#f)" d="M-5-5h32V8H-5z"/>
        </g>
    </g>
</svg>
