<svg width="20" height="20" viewBox="0 0 20 20" xmlns="http://www.w3.org/2000/svg">
    <g fill="#fff" fill-rule="nonzero">
        <path d="M10 10c-1.135-.002-2.106.786-2.299 1.864-.192 1.08.45 2.134 1.521 2.498v.888c0 .414.348.75.778.75.43 0 .778-.336.778-.75v-.888c1.07-.364 1.713-1.419 1.52-2.498C12.107 10.786 11.136 9.998 10 10zm0 3a.764.764 0 0 1-.778-.75c0-.414.348-.75.778-.75.43 0 .778.336.778.75S10.43 13 10 13z"/>
        <path d="M10 1c-2.576.002-4.664 2.016-4.667 4.5V7C4.045 7 3 8.007 3 9.25v7.5C3 17.993 4.045 19 5.333 19h9.334C15.955 19 17 17.993 17 16.75v-7.5C17 8.007 15.955 7 14.667 7V5.5C14.664 3.016 12.577 1.002 10 1zm5.444 8.25v7.5c0 .414-.348.75-.777.75H5.333a.764.764 0 0 1-.777-.75v-7.5c0-.414.348-.75.777-.75h9.334c.43 0 .777.336.777.75zM6.89 7V5.5c0-1.657 1.393-3 3.111-3 1.718 0 3.111 1.343 3.111 3V7H6.89z"/>
    </g>
</svg>
