<svg xmlns="http://www.w3.org/2000/svg" viewBox="0 0 20 20">
  <g fill="currentColor" fill-rule="evenodd">
    <path fill-rule="nonzero" d="M8.04 1.03c2.956 0 5.36 2.454 5.36 5.47v4.146l2.636-2.683 1.189 1.119-4.631 4.675-4.606-4.675 1.134-1.119 2.664 2.683V6.5c0-1.662-1.045-3.08-2.5-3.605l.201.079C8.2 3.526 7.274 4.793 7.193 6.286l-.006.214v3.463H5.573V6.5c0-1.405.522-2.688 1.378-3.658l.184-.052c-1.63.414-2.841 1.92-2.841 3.71v3.463H2.68V6.5c0-3.016 2.404-5.47 5.36-5.47z"/>
    <path d="M2.673 11.364h1.6V15h-1.6zm2.9 0h1.6V15h-1.6zM4 18h10.91v1.6H4z"/>
  </g>
</svg>