<svg width="40" height="40" viewBox="0 0 40 40" xmlns="http://www.w3.org/2000/svg">
    <path d="M38.571 18.731h-1.8v-8.197c0-1.966-1.615-3.565-3.6-3.565h-2.438l-2.495-4.44a2.164 2.164 0 0 0-1.889-1.1c-.366 0-.729.093-1.049.269l-9.575 5.271H5.029c-1.985 0-3.6 1.6-3.6 3.564v24.474c0 1.966 1.615 3.564 3.6 3.564H33.17c1.985 0 3.6-1.598 3.6-3.564V27.82h1.8V18.73zm-5.4-10.336c1.109 0 2.015.834 2.136 1.901h-2.706l-1.067-1.901h1.637zm-7.17-5.451a.738.738 0 0 1 .978.277l3.975 7.074H12.646L26 2.944zm9.33 32.063c0 1.18-.97 2.139-2.16 2.139H5.029c-1.191 0-2.16-.96-2.16-2.139V10.534c0-1.18.969-2.139 2.16-2.139h8.106l-3.453 1.901H5.479c-.398 0-.72.32-.72.713 0 .394.322.713.72.713H35.332v7.01h-5.267c-2.445 0-4.435 1.97-4.435 4.39v.307c0 2.421 1.99 4.392 4.435 4.392h5.266v7.186zm1.8-8.613H30.065c-1.651 0-2.995-1.33-2.995-2.965v-.307c0-1.635 1.343-2.965 2.995-2.965H37.131v6.237zm-4.86-3.06c0 .87-.712 1.574-1.59 1.574-.878 0-1.59-.704-1.59-1.574 0-.87.712-1.574 1.59-1.574.879 0 1.59.705 1.59 1.574z" fill="#FFF" fill-rule="nonzero" stroke="#FFF" opacity=".3"/>
</svg>
